<svg width="22" height="22" viewBox="0 0 22 22" fill="none" xmlns="http://www.w3.org/2000/svg">
<path fill-rule="evenodd" clip-rule="evenodd" d="M8.2141 7.71577H12.2376V9.71993C12.8172 8.56727 14.3035 7.5316 16.5363 7.5316C20.8165 7.5316 21.8327 9.8261 21.8327 14.0359V21.8327H17.4993V14.9947C17.4993 12.5973 16.9198 11.2453 15.4443 11.2453C13.3978 11.2453 12.5474 12.7023 12.5474 14.9936V21.8327H8.2141V7.71577V7.71577ZM0.783516 21.6485H5.11685V7.5316H0.783516V21.6485V21.6485ZM5.7376 2.92852C5.73776 3.29173 5.66573 3.65135 5.52568 3.98648C5.38564 4.32162 5.18039 4.62557 4.92185 4.88068C4.39795 5.40136 3.68881 5.69281 2.95018 5.69102C2.21285 5.69052 1.50535 5.39981 0.980682 4.88177C0.723078 4.62579 0.518517 4.32149 0.378721 3.98632C0.238926 3.65114 0.166643 3.29168 0.166016 2.92852C0.166016 2.1951 0.458516 1.4931 0.981766 0.975266C1.50597 0.456521 2.21378 0.165691 2.95127 0.166016C3.6901 0.166016 4.3986 0.457433 4.92185 0.975266C5.44402 1.4931 5.7376 2.1951 5.7376 2.92852Z" fill="white"/>
</svg>
